<svg width="504" height="501" viewBox="0 0 504 501" fill="none" xmlns="http://www.w3.org/2000/svg">
<rect width="240" height="240" rx="27" fill="#28B3B8"/>
<rect x="264" y="72" width="240" height="240" rx="27" fill="#FFD56B"/>
<rect x="2" y="261" width="240" height="240" rx="27" fill="#FF745C"/>
<path d="M55.5686 97.56C51.1819 95.2267 48.9886 91.5633 48.9886 86.57C48.9886 84.05 49.6419 81.7633 50.9486 79.71C52.2552 77.61 54.2386 75.9533 56.8986 74.74C59.5586 73.48 62.8252 72.85 66.6986 72.85C70.5719 72.85 73.8152 73.48 76.4286 74.74C79.0886 75.9533 81.0719 77.61 82.3786 79.71C83.6852 81.7633 84.3386 84.05 84.3386 86.57C84.3386 89.09 83.7319 91.2833 82.5186 93.15C81.3519 95.0167 79.7652 96.4867 77.7586 97.56C80.2786 98.7733 82.2152 100.453 83.5686 102.6C84.9219 104.7 85.5986 107.173 85.5986 110.02C85.5986 113.333 84.7586 116.203 83.0786 118.63C81.3986 121.01 79.1119 122.83 76.2186 124.09C73.3719 125.35 70.1986 125.98 66.6986 125.98C63.1986 125.98 60.0019 125.35 57.1086 124.09C54.2619 122.83 51.9986 121.01 50.3186 118.63C48.6386 116.203 47.7986 113.333 47.7986 110.02C47.7986 107.127 48.4752 104.63 49.8286 102.53C51.1819 100.383 53.0952 98.7267 55.5686 97.56ZM72.7186 88.39C72.7186 86.4767 72.1586 85.0067 71.0386 83.98C69.9652 82.9067 68.5186 82.37 66.6986 82.37C64.8786 82.37 63.4086 82.9067 62.2886 83.98C61.2152 85.0533 60.6786 86.5467 60.6786 88.46C60.6786 90.28 61.2386 91.7267 62.3586 92.8C63.4786 93.8267 64.9252 94.34 66.6986 94.34C68.4719 94.34 69.9186 93.8033 71.0386 92.73C72.1586 91.6567 72.7186 90.21 72.7186 88.39ZM66.6986 102.74C64.5052 102.74 62.7319 103.347 61.3786 104.56C60.0252 105.727 59.3486 107.36 59.3486 109.46C59.3486 111.42 60.0019 113.03 61.3086 114.29C62.6619 115.55 64.4586 116.18 66.6986 116.18C68.9386 116.18 70.6886 115.55 71.9486 114.29C73.2552 113.03 73.9086 111.42 73.9086 109.46C73.9086 107.407 73.2319 105.773 71.8786 104.56C70.5719 103.347 68.8452 102.74 66.6986 102.74ZM92.5592 98.75C92.5592 90.7233 94.0992 84.4 97.1792 79.78C100.306 75.16 105.323 72.85 112.229 72.85C119.136 72.85 124.129 75.16 127.209 79.78C130.336 84.4 131.899 90.7233 131.899 98.75C131.899 106.87 130.336 113.24 127.209 117.86C124.129 122.48 119.136 124.79 112.229 124.79C105.323 124.79 100.306 122.48 97.1792 117.86C94.0992 113.24 92.5592 106.87 92.5592 98.75ZM120.139 98.75C120.139 94.0367 119.626 90.42 118.599 87.9C117.573 85.3333 115.449 84.05 112.229 84.05C109.009 84.05 106.886 85.3333 105.859 87.9C104.833 90.42 104.319 94.0367 104.319 98.75C104.319 101.923 104.506 104.56 104.879 106.66C105.253 108.713 105.999 110.393 107.119 111.7C108.286 112.96 109.989 113.59 112.229 113.59C114.469 113.59 116.149 112.96 117.269 111.7C118.436 110.393 119.206 108.713 119.579 106.66C119.953 104.56 120.139 101.923 120.139 98.75ZM137.243 86.78C137.243 83 138.317 80.0833 140.463 78.03C142.657 75.9767 145.48 74.95 148.933 74.95C152.387 74.95 155.187 75.9767 157.333 78.03C159.48 80.0833 160.553 83 160.553 86.78C160.553 90.56 159.48 93.4767 157.333 95.53C155.187 97.5833 152.387 98.61 148.933 98.61C145.48 98.61 142.657 97.5833 140.463 95.53C138.317 93.4767 137.243 90.56 137.243 86.78ZM184.773 75.72L157.823 125H146.273L173.223 75.72H184.773ZM148.863 81.95C146.623 81.95 145.503 83.56 145.503 86.78C145.503 89.9533 146.623 91.54 148.863 91.54C149.937 91.54 150.777 91.1433 151.383 90.35C151.99 89.5567 152.293 88.3667 152.293 86.78C152.293 83.56 151.15 81.95 148.863 81.95ZM170.563 113.94C170.563 110.16 171.637 107.243 173.783 105.19C175.93 103.137 178.73 102.11 182.183 102.11C185.637 102.11 188.437 103.137 190.583 105.19C192.73 107.243 193.803 110.16 193.803 113.94C193.803 117.72 192.73 120.637 190.583 122.69C188.437 124.743 185.637 125.77 182.183 125.77C178.73 125.77 175.93 124.743 173.783 122.69C171.637 120.637 170.563 117.72 170.563 113.94ZM182.113 109.11C181.04 109.11 180.2 109.507 179.593 110.3C179.033 111.093 178.753 112.307 178.753 113.94C178.753 117.113 179.873 118.7 182.113 118.7C183.187 118.7 184.027 118.303 184.633 117.51C185.24 116.717 185.543 115.527 185.543 113.94C185.543 112.353 185.24 111.163 184.633 110.37C184.027 109.53 183.187 109.11 182.113 109.11Z" fill="#FBF9F4"/>
<path d="M325.211 182.02C325.911 185.707 328.057 187.55 331.651 187.55C334.124 187.55 335.874 186.453 336.901 184.26C337.927 182.067 338.441 178.497 338.441 173.55C337.414 174.997 336.014 176.117 334.241 176.91C332.467 177.703 330.484 178.1 328.291 178.1C325.304 178.1 322.644 177.493 320.311 176.28C317.977 175.02 316.134 173.177 314.781 170.75C313.474 168.277 312.821 165.29 312.821 161.79C312.821 158.337 313.521 155.327 314.921 152.76C316.367 150.193 318.397 148.21 321.011 146.81C323.671 145.41 326.797 144.71 330.391 144.71C337.297 144.71 342.127 146.857 344.881 151.15C347.634 155.443 349.011 161.767 349.011 170.12C349.011 176.187 348.451 181.203 347.331 185.17C346.257 189.09 344.414 192.077 341.801 194.13C339.234 196.183 335.711 197.21 331.231 197.21C327.684 197.21 324.651 196.51 322.131 195.11C319.657 193.71 317.744 191.867 316.391 189.58C315.084 187.293 314.337 184.773 314.151 182.02H325.211ZM331.021 168.65C332.981 168.65 334.544 168.067 335.711 166.9C336.877 165.687 337.461 164.053 337.461 162C337.461 159.76 336.854 158.033 335.641 156.82C334.427 155.607 332.794 155 330.741 155C328.687 155 327.054 155.63 325.841 156.89C324.674 158.103 324.091 159.783 324.091 161.93C324.091 163.937 324.674 165.57 325.841 166.83C327.054 168.043 328.781 168.65 331.021 168.65ZM355.397 170.75C355.397 162.723 356.937 156.4 360.017 151.78C363.144 147.16 368.16 144.85 375.067 144.85C381.974 144.85 386.967 147.16 390.047 151.78C393.174 156.4 394.737 162.723 394.737 170.75C394.737 178.87 393.174 185.24 390.047 189.86C386.967 194.48 381.974 196.79 375.067 196.79C368.16 196.79 363.144 194.48 360.017 189.86C356.937 185.24 355.397 178.87 355.397 170.75ZM382.977 170.75C382.977 166.037 382.464 162.42 381.437 159.9C380.41 157.333 378.287 156.05 375.067 156.05C371.847 156.05 369.724 157.333 368.697 159.9C367.67 162.42 367.157 166.037 367.157 170.75C367.157 173.923 367.344 176.56 367.717 178.66C368.09 180.713 368.837 182.393 369.957 183.7C371.124 184.96 372.827 185.59 375.067 185.59C377.307 185.59 378.987 184.96 380.107 183.7C381.274 182.393 382.044 180.713 382.417 178.66C382.79 176.56 382.977 173.923 382.977 170.75ZM400.081 158.78C400.081 155 401.154 152.083 403.301 150.03C405.494 147.977 408.318 146.95 411.771 146.95C415.224 146.95 418.024 147.977 420.171 150.03C422.318 152.083 423.391 155 423.391 158.78C423.391 162.56 422.318 165.477 420.171 167.53C418.024 169.583 415.224 170.61 411.771 170.61C408.318 170.61 405.494 169.583 403.301 167.53C401.154 165.477 400.081 162.56 400.081 158.78ZM447.611 147.72L420.661 197H409.111L436.061 147.72H447.611ZM411.701 153.95C409.461 153.95 408.341 155.56 408.341 158.78C408.341 161.953 409.461 163.54 411.701 163.54C412.774 163.54 413.614 163.143 414.221 162.35C414.828 161.557 415.131 160.367 415.131 158.78C415.131 155.56 413.988 153.95 411.701 153.95ZM433.401 185.94C433.401 182.16 434.474 179.243 436.621 177.19C438.768 175.137 441.568 174.11 445.021 174.11C448.474 174.11 451.274 175.137 453.421 177.19C455.568 179.243 456.641 182.16 456.641 185.94C456.641 189.72 455.568 192.637 453.421 194.69C451.274 196.743 448.474 197.77 445.021 197.77C441.568 197.77 438.768 196.743 436.621 194.69C434.474 192.637 433.401 189.72 433.401 185.94ZM444.951 181.11C443.878 181.11 443.038 181.507 442.431 182.3C441.871 183.093 441.591 184.307 441.591 185.94C441.591 189.113 442.711 190.7 444.951 190.7C446.024 190.7 446.864 190.303 447.471 189.51C448.078 188.717 448.381 187.527 448.381 185.94C448.381 184.353 448.078 183.163 447.471 182.37C446.864 181.53 446.024 181.11 444.951 181.11Z" fill="#304850"/>
<path d="M71.2247 345.33H49.3847V354.99C50.3181 353.963 51.6247 353.123 53.3047 352.47C54.9847 351.817 56.8047 351.49 58.7647 351.49C62.2647 351.49 65.1581 352.283 67.4447 353.87C69.7781 355.457 71.4814 357.51 72.5547 360.03C73.6281 362.55 74.1647 365.28 74.1647 368.22C74.1647 373.68 72.6247 378.02 69.5447 381.24C66.4647 384.413 62.1247 386 56.5247 386C52.7914 386 49.5481 385.37 46.7947 384.11C44.0414 382.803 41.9181 381.007 40.4247 378.72C38.9314 376.433 38.1147 373.797 37.9747 370.81H49.6647C49.9447 372.257 50.6214 373.47 51.6947 374.45C52.7681 375.383 54.2381 375.85 56.1047 375.85C58.2981 375.85 59.9314 375.15 61.0047 373.75C62.0781 372.35 62.6147 370.483 62.6147 368.15C62.6147 365.863 62.0547 364.113 60.9347 362.9C59.8147 361.687 58.1814 361.08 56.0347 361.08C54.4481 361.08 53.1414 361.477 52.1147 362.27C51.0881 363.017 50.4114 364.02 50.0847 365.28H38.5347V334.83H71.2247V345.33ZM80.7721 359.75C80.7721 351.723 82.3121 345.4 85.3921 340.78C88.5187 336.16 93.5354 333.85 100.442 333.85C107.349 333.85 112.342 336.16 115.422 340.78C118.549 345.4 120.112 351.723 120.112 359.75C120.112 367.87 118.549 374.24 115.422 378.86C112.342 383.48 107.349 385.79 100.442 385.79C93.5354 385.79 88.5187 383.48 85.3921 378.86C82.3121 374.24 80.7721 367.87 80.7721 359.75ZM108.352 359.75C108.352 355.037 107.839 351.42 106.812 348.9C105.785 346.333 103.662 345.05 100.442 345.05C97.2221 345.05 95.0987 346.333 94.0721 348.9C93.0454 351.42 92.5321 355.037 92.5321 359.75C92.5321 362.923 92.7187 365.56 93.0921 367.66C93.4654 369.713 94.2121 371.393 95.3321 372.7C96.4987 373.96 98.2021 374.59 100.442 374.59C102.682 374.59 104.362 373.96 105.482 372.7C106.649 371.393 107.419 369.713 107.792 367.66C108.165 365.56 108.352 362.923 108.352 359.75ZM126.436 359.75C126.436 351.723 127.976 345.4 131.056 340.78C134.183 336.16 139.199 333.85 146.106 333.85C153.013 333.85 158.006 336.16 161.086 340.78C164.213 345.4 165.776 351.723 165.776 359.75C165.776 367.87 164.213 374.24 161.086 378.86C158.006 383.48 153.013 385.79 146.106 385.79C139.199 385.79 134.183 383.48 131.056 378.86C127.976 374.24 126.436 367.87 126.436 359.75ZM154.016 359.75C154.016 355.037 153.503 351.42 152.476 348.9C151.449 346.333 149.326 345.05 146.106 345.05C142.886 345.05 140.763 346.333 139.736 348.9C138.709 351.42 138.196 355.037 138.196 359.75C138.196 362.923 138.383 365.56 138.756 367.66C139.129 369.713 139.876 371.393 140.996 372.7C142.163 373.96 143.866 374.59 146.106 374.59C148.346 374.59 150.026 373.96 151.146 372.7C152.313 371.393 153.083 369.713 153.456 367.66C153.829 365.56 154.016 362.923 154.016 359.75ZM208.78 366.89H196.6V379.35H185.26V366.89H173.08V356.18H185.26V343.65H196.6V356.18H208.78V366.89Z" fill="#FBF9F4"/>
<path d="M51.584 156.168C50.352 156.168 49.248 155.968 48.272 155.568C47.296 155.168 46.512 154.576 45.92 153.792C45.344 153.008 45.04 152.064 45.008 150.96H49.376C49.44 151.584 49.656 152.064 50.024 152.4C50.392 152.72 50.872 152.88 51.464 152.88C52.072 152.88 52.552 152.744 52.904 152.472C53.256 152.184 53.432 151.792 53.432 151.296C53.432 150.88 53.288 150.536 53 150.264C52.728 149.992 52.384 149.768 51.968 149.592C51.568 149.416 50.992 149.216 50.24 148.992C49.152 148.656 48.264 148.32 47.576 147.984C46.888 147.648 46.296 147.152 45.8 146.496C45.304 145.84 45.056 144.984 45.056 143.928C45.056 142.36 45.624 141.136 46.76 140.256C47.896 139.36 49.376 138.912 51.2 138.912C53.056 138.912 54.552 139.36 55.688 140.256C56.824 141.136 57.432 142.368 57.512 143.952H53.072C53.04 143.408 52.84 142.984 52.472 142.68C52.104 142.36 51.632 142.2 51.056 142.2C50.56 142.2 50.16 142.336 49.856 142.608C49.552 142.864 49.4 143.24 49.4 143.736C49.4 144.28 49.656 144.704 50.168 145.008C50.68 145.312 51.48 145.64 52.568 145.992C53.656 146.36 54.536 146.712 55.208 147.048C55.896 147.384 56.488 147.872 56.984 148.512C57.48 149.152 57.728 149.976 57.728 150.984C57.728 151.944 57.48 152.816 56.984 153.6C56.504 154.384 55.8 155.008 54.872 155.472C53.944 155.936 52.848 156.168 51.584 156.168ZM73.4776 142.608V156H69.3736V154.176C68.9576 154.768 68.3896 155.248 67.6696 155.616C66.9656 155.968 66.1816 156.144 65.3176 156.144C64.2936 156.144 63.3896 155.92 62.6056 155.472C61.8216 155.008 61.2136 154.344 60.7816 153.48C60.3496 152.616 60.1336 151.6 60.1336 150.432V142.608H64.2136V149.88C64.2136 150.776 64.4456 151.472 64.9096 151.968C65.3736 152.464 65.9976 152.712 66.7816 152.712C67.5816 152.712 68.2136 152.464 68.6776 151.968C69.1416 151.472 69.3736 150.776 69.3736 149.88V142.608H73.4776ZM75.6095 149.304C75.6095 147.912 75.8895 146.696 76.4495 145.656C77.0255 144.616 77.8175 143.816 78.8255 143.256C79.8495 142.696 81.0175 142.416 82.3295 142.416C84.0095 142.416 85.4095 142.856 86.5295 143.736C87.6655 144.616 88.4095 145.856 88.7615 147.456H84.3935C84.0255 146.432 83.3135 145.92 82.2575 145.92C81.5055 145.92 80.9055 146.216 80.4575 146.808C80.0095 147.384 79.7855 148.216 79.7855 149.304C79.7855 150.392 80.0095 151.232 80.4575 151.824C80.9055 152.4 81.5055 152.688 82.2575 152.688C83.3135 152.688 84.0255 152.176 84.3935 151.152H88.7615C88.4095 152.72 87.6655 153.952 86.5295 154.848C85.3935 155.744 83.9935 156.192 82.3295 156.192C81.0175 156.192 79.8495 155.912 78.8255 155.352C77.8175 154.792 77.0255 153.992 76.4495 152.952C75.8895 151.912 75.6095 150.696 75.6095 149.304ZM90.1408 149.304C90.1408 147.912 90.4208 146.696 90.9808 145.656C91.5568 144.616 92.3488 143.816 93.3568 143.256C94.3808 142.696 95.5488 142.416 96.8608 142.416C98.5408 142.416 99.9408 142.856 101.061 143.736C102.197 144.616 102.941 145.856 103.293 147.456H98.9248C98.5568 146.432 97.8448 145.92 96.7888 145.92C96.0368 145.92 95.4368 146.216 94.9888 146.808C94.5408 147.384 94.3168 148.216 94.3168 149.304C94.3168 150.392 94.5408 151.232 94.9888 151.824C95.4368 152.4 96.0368 152.688 96.7888 152.688C97.8448 152.688 98.5568 152.176 98.9248 151.152H103.293C102.941 152.72 102.197 153.952 101.061 154.848C99.9248 155.744 98.5248 156.192 96.8608 156.192C95.5488 156.192 94.3808 155.912 93.3568 155.352C92.3488 154.792 91.5568 153.992 90.9808 152.952C90.4208 151.912 90.1408 150.696 90.1408 149.304ZM118.112 149.088C118.112 149.472 118.088 149.872 118.04 150.288H108.752C108.816 151.12 109.08 151.76 109.544 152.208C110.024 152.64 110.608 152.856 111.296 152.856C112.32 152.856 113.032 152.424 113.432 151.56H117.8C117.576 152.44 117.168 153.232 116.576 153.936C116 154.64 115.272 155.192 114.392 155.592C113.512 155.992 112.528 156.192 111.44 156.192C110.128 156.192 108.96 155.912 107.936 155.352C106.912 154.792 106.112 153.992 105.536 152.952C104.96 151.912 104.672 150.696 104.672 149.304C104.672 147.912 104.952 146.696 105.512 145.656C106.088 144.616 106.888 143.816 107.912 143.256C108.936 142.696 110.112 142.416 111.44 142.416C112.736 142.416 113.888 142.688 114.896 143.232C115.904 143.776 116.688 144.552 117.248 145.56C117.824 146.568 118.112 147.744 118.112 149.088ZM113.912 148.008C113.912 147.304 113.672 146.744 113.192 146.328C112.712 145.912 112.112 145.704 111.392 145.704C110.704 145.704 110.12 145.904 109.64 146.304C109.176 146.704 108.888 147.272 108.776 148.008H113.912ZM125.725 156.192C124.557 156.192 123.517 155.992 122.605 155.592C121.693 155.192 120.973 154.648 120.445 153.96C119.917 153.256 119.621 152.472 119.557 151.608H123.613C123.661 152.072 123.877 152.448 124.261 152.736C124.645 153.024 125.117 153.168 125.677 153.168C126.189 153.168 126.581 153.072 126.853 152.88C127.141 152.672 127.285 152.408 127.285 152.088C127.285 151.704 127.085 151.424 126.685 151.248C126.285 151.056 125.637 150.848 124.741 150.624C123.781 150.4 122.981 150.168 122.341 149.928C121.701 149.672 121.149 149.28 120.685 148.752C120.221 148.208 119.989 147.48 119.989 146.568C119.989 145.8 120.197 145.104 120.613 144.48C121.045 143.84 121.669 143.336 122.485 142.968C123.317 142.6 124.301 142.416 125.437 142.416C127.117 142.416 128.437 142.832 129.397 143.664C130.373 144.496 130.933 145.6 131.077 146.976H127.285C127.221 146.512 127.013 146.144 126.661 145.872C126.325 145.6 125.877 145.464 125.317 145.464C124.837 145.464 124.469 145.56 124.213 145.752C123.957 145.928 123.829 146.176 123.829 146.496C123.829 146.88 124.029 147.168 124.429 147.36C124.845 147.552 125.485 147.744 126.349 147.936C127.341 148.192 128.149 148.448 128.773 148.704C129.397 148.944 129.941 149.344 130.405 149.904C130.885 150.448 131.133 151.184 131.149 152.112C131.149 152.896 130.925 153.6 130.477 154.224C130.045 154.832 129.413 155.312 128.581 155.664C127.765 156.016 126.813 156.192 125.725 156.192ZM139.108 156.192C137.94 156.192 136.9 155.992 135.988 155.592C135.076 155.192 134.356 154.648 133.828 153.96C133.3 153.256 133.004 152.472 132.94 151.608H136.996C137.044 152.072 137.26 152.448 137.644 152.736C138.028 153.024 138.5 153.168 139.06 153.168C139.572 153.168 139.964 153.072 140.236 152.88C140.524 152.672 140.668 152.408 140.668 152.088C140.668 151.704 140.468 151.424 140.068 151.248C139.668 151.056 139.02 150.848 138.124 150.624C137.164 150.4 136.364 150.168 135.724 149.928C135.084 149.672 134.532 149.28 134.068 148.752C133.604 148.208 133.372 147.48 133.372 146.568C133.372 145.8 133.58 145.104 133.996 144.48C134.428 143.84 135.052 143.336 135.868 142.968C136.7 142.6 137.684 142.416 138.82 142.416C140.5 142.416 141.82 142.832 142.78 143.664C143.756 144.496 144.316 145.6 144.46 146.976H140.668C140.604 146.512 140.396 146.144 140.044 145.872C139.708 145.6 139.26 145.464 138.7 145.464C138.22 145.464 137.852 145.56 137.596 145.752C137.34 145.928 137.212 146.176 137.212 146.496C137.212 146.88 137.412 147.168 137.812 147.36C138.228 147.552 138.868 147.744 139.732 147.936C140.724 148.192 141.532 148.448 142.156 148.704C142.78 148.944 143.324 149.344 143.788 149.904C144.268 150.448 144.516 151.184 144.532 152.112C144.532 152.896 144.308 153.6 143.86 154.224C143.428 154.832 142.796 155.312 141.964 155.664C141.148 156.016 140.196 156.192 139.108 156.192ZM54.08 183L50.576 176.64H49.592V183H45.488V166.152H52.376C53.704 166.152 54.832 166.384 55.76 166.848C56.704 167.312 57.408 167.952 57.872 168.768C58.336 169.568 58.568 170.464 58.568 171.456C58.568 172.576 58.248 173.576 57.608 174.456C56.984 175.336 56.056 175.96 54.824 176.328L58.712 183H54.08ZM49.592 173.736H52.136C52.888 173.736 53.448 173.552 53.816 173.184C54.2 172.816 54.392 172.296 54.392 171.624C54.392 170.984 54.2 170.48 53.816 170.112C53.448 169.744 52.888 169.56 52.136 169.56H49.592V173.736ZM60.3283 176.28C60.3283 174.904 60.5843 173.696 61.0963 172.656C61.6243 171.616 62.3363 170.816 63.2323 170.256C64.1283 169.696 65.1283 169.416 66.2323 169.416C67.1763 169.416 68.0003 169.608 68.7043 169.992C69.4243 170.376 69.9763 170.88 70.3603 171.504V169.608H74.4643V183H70.3603V181.104C69.9603 181.728 69.4003 182.232 68.6803 182.616C67.9763 183 67.1523 183.192 66.2083 183.192C65.1203 183.192 64.1283 182.912 63.2323 182.352C62.3363 181.776 61.6243 180.968 61.0963 179.928C60.5843 178.872 60.3283 177.656 60.3283 176.28ZM70.3603 176.304C70.3603 175.28 70.0723 174.472 69.4963 173.88C68.9363 173.288 68.2483 172.992 67.4323 172.992C66.6163 172.992 65.9203 173.288 65.3443 173.88C64.7843 174.456 64.5043 175.256 64.5043 176.28C64.5043 177.304 64.7843 178.12 65.3443 178.728C65.9203 179.32 66.6163 179.616 67.4323 179.616C68.2483 179.616 68.9363 179.32 69.4963 178.728C70.0723 178.136 70.3603 177.328 70.3603 176.304ZM84.8973 179.52V183H82.8093C81.3213 183 80.1613 182.64 79.3293 181.92C78.4973 181.184 78.0813 179.992 78.0813 178.344V173.016H76.4493V169.608H78.0813V166.344H82.1853V169.608H84.8733V173.016H82.1853V178.392C82.1853 178.792 82.2813 179.08 82.4733 179.256C82.6653 179.432 82.9853 179.52 83.4333 179.52H84.8973ZM99.8073 176.088C99.8073 176.472 99.7833 176.872 99.7353 177.288H90.4473C90.5113 178.12 90.7753 178.76 91.2393 179.208C91.7193 179.64 92.3033 179.856 92.9913 179.856C94.0153 179.856 94.7273 179.424 95.1273 178.56H99.4953C99.2713 179.44 98.8633 180.232 98.2713 180.936C97.6953 181.64 96.9673 182.192 96.0873 182.592C95.2073 182.992 94.2233 183.192 93.1353 183.192C91.8233 183.192 90.6553 182.912 89.6313 182.352C88.6073 181.792 87.8073 180.992 87.2313 179.952C86.6553 178.912 86.3673 177.696 86.3673 176.304C86.3673 174.912 86.6473 173.696 87.2073 172.656C87.7833 171.616 88.5833 170.816 89.6073 170.256C90.6313 169.696 91.8073 169.416 93.1353 169.416C94.4313 169.416 95.5833 169.688 96.5913 170.232C97.5993 170.776 98.3833 171.552 98.9433 172.56C99.5193 173.568 99.8073 174.744 99.8073 176.088ZM95.6073 175.008C95.6073 174.304 95.3673 173.744 94.8873 173.328C94.4073 172.912 93.8073 172.704 93.0873 172.704C92.3993 172.704 91.8153 172.904 91.3353 173.304C90.8713 173.704 90.5833 174.272 90.4713 175.008H95.6073Z" fill="#FBF9F4"/>
<path d="M315.8 211.152C317.576 211.152 319.128 211.504 320.456 212.208C321.784 212.912 322.808 213.904 323.528 215.184C324.264 216.448 324.632 217.912 324.632 219.576C324.632 221.224 324.264 222.688 323.528 223.968C322.808 225.248 321.776 226.24 320.432 226.944C319.104 227.648 317.56 228 315.8 228H309.488V211.152H315.8ZM315.536 224.448C317.088 224.448 318.296 224.024 319.16 223.176C320.024 222.328 320.456 221.128 320.456 219.576C320.456 218.024 320.024 216.816 319.16 215.952C318.296 215.088 317.088 214.656 315.536 214.656H313.592V224.448H315.536ZM339.549 221.088C339.549 221.472 339.526 221.872 339.478 222.288H330.19C330.254 223.12 330.518 223.76 330.982 224.208C331.462 224.64 332.046 224.856 332.734 224.856C333.758 224.856 334.47 224.424 334.87 223.56H339.238C339.014 224.44 338.606 225.232 338.014 225.936C337.438 226.64 336.71 227.192 335.83 227.592C334.95 227.992 333.966 228.192 332.878 228.192C331.566 228.192 330.398 227.912 329.374 227.352C328.35 226.792 327.55 225.992 326.974 224.952C326.398 223.912 326.11 222.696 326.11 221.304C326.11 219.912 326.39 218.696 326.95 217.656C327.526 216.616 328.326 215.816 329.35 215.256C330.374 214.696 331.55 214.416 332.878 214.416C334.174 214.416 335.326 214.688 336.334 215.232C337.342 215.776 338.126 216.552 338.686 217.56C339.262 218.568 339.549 219.744 339.549 221.088ZM335.35 220.008C335.35 219.304 335.11 218.744 334.63 218.328C334.15 217.912 333.55 217.704 332.83 217.704C332.142 217.704 331.558 217.904 331.078 218.304C330.614 218.704 330.326 219.272 330.214 220.008H335.35ZM340.899 221.28C340.899 219.904 341.155 218.696 341.667 217.656C342.195 216.616 342.907 215.816 343.803 215.256C344.699 214.696 345.699 214.416 346.803 214.416C347.747 214.416 348.571 214.608 349.275 214.992C349.995 215.376 350.547 215.88 350.931 216.504V214.608H355.035V228H350.931V226.104C350.531 226.728 349.971 227.232 349.251 227.616C348.547 228 347.723 228.192 346.779 228.192C345.691 228.192 344.699 227.912 343.803 227.352C342.907 226.776 342.195 225.968 341.667 224.928C341.155 223.872 340.899 222.656 340.899 221.28ZM350.931 221.304C350.931 220.28 350.643 219.472 350.067 218.88C349.507 218.288 348.819 217.992 348.003 217.992C347.187 217.992 346.491 218.288 345.915 218.88C345.355 219.456 345.075 220.256 345.075 221.28C345.075 222.304 345.355 223.12 345.915 223.728C346.491 224.32 347.187 224.616 348.003 224.616C348.819 224.616 349.507 224.32 350.067 223.728C350.643 223.136 350.931 222.328 350.931 221.304ZM357.188 221.28C357.188 219.904 357.444 218.696 357.956 217.656C358.484 216.616 359.196 215.816 360.092 215.256C360.988 214.696 361.988 214.416 363.092 214.416C363.972 214.416 364.772 214.6 365.492 214.968C366.228 215.336 366.804 215.832 367.22 216.456V210.24H371.324V228H367.22V226.08C366.836 226.72 366.284 227.232 365.564 227.616C364.86 228 364.036 228.192 363.092 228.192C361.988 228.192 360.988 227.912 360.092 227.352C359.196 226.776 358.484 225.968 357.956 224.928C357.444 223.872 357.188 222.656 357.188 221.28ZM367.22 221.304C367.22 220.28 366.932 219.472 366.356 218.88C365.796 218.288 365.108 217.992 364.292 217.992C363.476 217.992 362.78 218.288 362.204 218.88C361.644 219.456 361.364 220.256 361.364 221.28C361.364 222.304 361.644 223.12 362.204 223.728C362.78 224.32 363.476 224.616 364.292 224.616C365.108 224.616 365.796 224.32 366.356 223.728C366.932 223.136 367.22 222.328 367.22 221.304ZM378.397 210.24V228H374.293V210.24H378.397ZM383.435 213.216C382.715 213.216 382.123 213.008 381.659 212.592C381.211 212.16 380.987 211.632 380.987 211.008C380.987 210.368 381.211 209.84 381.659 209.424C382.123 208.992 382.715 208.776 383.435 208.776C384.139 208.776 384.715 208.992 385.163 209.424C385.627 209.84 385.859 210.368 385.859 211.008C385.859 211.632 385.627 212.16 385.163 212.592C384.715 213.008 384.139 213.216 383.435 213.216ZM385.475 214.608V228H381.371V214.608H385.475ZM396.609 214.464C398.177 214.464 399.425 214.976 400.353 216C401.297 217.008 401.769 218.4 401.769 220.176V228H397.689V220.728C397.689 219.832 397.457 219.136 396.993 218.64C396.529 218.144 395.905 217.896 395.121 217.896C394.337 217.896 393.713 218.144 393.249 218.64C392.785 219.136 392.553 219.832 392.553 220.728V228H388.449V214.608H392.553V216.384C392.969 215.792 393.529 215.328 394.233 214.992C394.937 214.64 395.729 214.464 396.609 214.464ZM417.245 221.088C417.245 221.472 417.221 221.872 417.173 222.288H407.885C407.949 223.12 408.213 223.76 408.677 224.208C409.157 224.64 409.741 224.856 410.429 224.856C411.453 224.856 412.165 224.424 412.565 223.56H416.933C416.709 224.44 416.301 225.232 415.709 225.936C415.133 226.64 414.405 227.192 413.525 227.592C412.645 227.992 411.661 228.192 410.573 228.192C409.261 228.192 408.093 227.912 407.069 227.352C406.045 226.792 405.245 225.992 404.669 224.952C404.093 223.912 403.805 222.696 403.805 221.304C403.805 219.912 404.085 218.696 404.645 217.656C405.221 216.616 406.021 215.816 407.045 215.256C408.069 214.696 409.245 214.416 410.573 214.416C411.869 214.416 413.021 214.688 414.029 215.232C415.037 215.776 415.821 216.552 416.381 217.56C416.957 218.568 417.245 219.744 417.245 221.088ZM413.045 220.008C413.045 219.304 412.805 218.744 412.325 218.328C411.845 217.912 411.245 217.704 410.525 217.704C409.837 217.704 409.253 217.904 408.773 218.304C408.309 218.704 408.021 219.272 407.909 220.008H413.045ZM424.858 228.192C423.69 228.192 422.65 227.992 421.738 227.592C420.826 227.192 420.106 226.648 419.578 225.96C419.05 225.256 418.754 224.472 418.69 223.608H422.746C422.794 224.072 423.01 224.448 423.394 224.736C423.778 225.024 424.25 225.168 424.81 225.168C425.322 225.168 425.714 225.072 425.986 224.88C426.274 224.672 426.418 224.408 426.418 224.088C426.418 223.704 426.218 223.424 425.818 223.248C425.418 223.056 424.77 222.848 423.874 222.624C422.914 222.4 422.114 222.168 421.474 221.928C420.834 221.672 420.282 221.28 419.818 220.752C419.354 220.208 419.122 219.48 419.122 218.568C419.122 217.8 419.33 217.104 419.746 216.48C420.178 215.84 420.802 215.336 421.618 214.968C422.45 214.6 423.434 214.416 424.57 214.416C426.25 214.416 427.57 214.832 428.53 215.664C429.506 216.496 430.066 217.6 430.21 218.976H426.418C426.354 218.512 426.146 218.144 425.794 217.872C425.458 217.6 425.01 217.464 424.45 217.464C423.97 217.464 423.602 217.56 423.346 217.752C423.09 217.928 422.962 218.176 422.962 218.496C422.962 218.88 423.162 219.168 423.562 219.36C423.978 219.552 424.618 219.744 425.482 219.936C426.474 220.192 427.282 220.448 427.906 220.704C428.53 220.944 429.074 221.344 429.538 221.904C430.018 222.448 430.266 223.184 430.282 224.112C430.282 224.896 430.058 225.6 429.61 226.224C429.178 226.832 428.546 227.312 427.714 227.664C426.898 228.016 425.946 228.192 424.858 228.192ZM318.08 255L314.576 248.64H313.592V255H309.488V238.152H316.376C317.704 238.152 318.832 238.384 319.76 238.848C320.704 239.312 321.408 239.952 321.872 240.768C322.336 241.568 322.568 242.464 322.568 243.456C322.568 244.576 322.248 245.576 321.608 246.456C320.984 247.336 320.056 247.96 318.824 248.328L322.712 255H318.08ZM313.592 245.736H316.136C316.888 245.736 317.448 245.552 317.816 245.184C318.2 244.816 318.392 244.296 318.392 243.624C318.392 242.984 318.2 242.48 317.816 242.112C317.448 241.744 316.888 241.56 316.136 241.56H313.592V245.736ZM337.768 248.088C337.768 248.472 337.744 248.872 337.696 249.288H328.408C328.472 250.12 328.736 250.76 329.2 251.208C329.68 251.64 330.264 251.856 330.952 251.856C331.976 251.856 332.688 251.424 333.088 250.56H337.456C337.232 251.44 336.824 252.232 336.232 252.936C335.656 253.64 334.928 254.192 334.048 254.592C333.168 254.992 332.184 255.192 331.096 255.192C329.784 255.192 328.616 254.912 327.592 254.352C326.568 253.792 325.768 252.992 325.192 251.952C324.616 250.912 324.328 249.696 324.328 248.304C324.328 246.912 324.608 245.696 325.168 244.656C325.744 243.616 326.544 242.816 327.568 242.256C328.592 241.696 329.768 241.416 331.096 241.416C332.392 241.416 333.544 241.688 334.552 242.232C335.56 242.776 336.344 243.552 336.904 244.56C337.48 245.568 337.768 246.744 337.768 248.088ZM333.568 247.008C333.568 246.304 333.328 245.744 332.848 245.328C332.368 244.912 331.768 244.704 331.048 244.704C330.36 244.704 329.776 244.904 329.296 245.304C328.832 245.704 328.544 246.272 328.432 247.008H333.568ZM339.117 248.28C339.117 246.904 339.373 245.696 339.885 244.656C340.413 243.616 341.125 242.816 342.021 242.256C342.917 241.696 343.917 241.416 345.021 241.416C345.901 241.416 346.701 241.6 347.421 241.968C348.157 242.336 348.733 242.832 349.149 243.456V237.24H353.253V255H349.149V253.08C348.765 253.72 348.213 254.232 347.493 254.616C346.789 255 345.965 255.192 345.021 255.192C343.917 255.192 342.917 254.912 342.021 254.352C341.125 253.776 340.413 252.968 339.885 251.928C339.373 250.872 339.117 249.656 339.117 248.28ZM349.149 248.304C349.149 247.28 348.861 246.472 348.285 245.88C347.725 245.288 347.037 244.992 346.221 244.992C345.405 244.992 344.709 245.288 344.133 245.88C343.573 246.456 343.293 247.256 343.293 248.28C343.293 249.304 343.573 250.12 344.133 250.728C344.709 251.32 345.405 251.616 346.221 251.616C347.037 251.616 347.725 251.32 348.285 250.728C348.861 250.136 349.149 249.328 349.149 248.304ZM369.446 241.608V255H365.342V253.176C364.926 253.768 364.358 254.248 363.638 254.616C362.934 254.968 362.15 255.144 361.286 255.144C360.262 255.144 359.358 254.92 358.574 254.472C357.79 254.008 357.182 253.344 356.75 252.48C356.318 251.616 356.102 250.6 356.102 249.432V241.608H360.182V248.88C360.182 249.776 360.414 250.472 360.878 250.968C361.342 251.464 361.966 251.712 362.75 251.712C363.55 251.712 364.182 251.464 364.646 250.968C365.11 250.472 365.342 249.776 365.342 248.88V241.608H369.446ZM371.578 248.304C371.578 246.912 371.858 245.696 372.418 244.656C372.994 243.616 373.786 242.816 374.794 242.256C375.818 241.696 376.986 241.416 378.298 241.416C379.978 241.416 381.378 241.856 382.498 242.736C383.634 243.616 384.378 244.856 384.73 246.456H380.362C379.994 245.432 379.282 244.92 378.226 244.92C377.474 244.92 376.874 245.216 376.426 245.808C375.978 246.384 375.754 247.216 375.754 248.304C375.754 249.392 375.978 250.232 376.426 250.824C376.874 251.4 377.474 251.688 378.226 251.688C379.282 251.688 379.994 251.176 380.362 250.152H384.73C384.378 251.72 383.634 252.952 382.498 253.848C381.362 254.744 379.962 255.192 378.298 255.192C376.986 255.192 375.818 254.912 374.794 254.352C373.786 253.792 372.994 252.992 372.418 251.952C371.858 250.912 371.578 249.696 371.578 248.304ZM399.549 248.088C399.549 248.472 399.526 248.872 399.478 249.288H390.19C390.254 250.12 390.518 250.76 390.982 251.208C391.462 251.64 392.046 251.856 392.734 251.856C393.758 251.856 394.47 251.424 394.87 250.56H399.238C399.014 251.44 398.606 252.232 398.014 252.936C397.438 253.64 396.71 254.192 395.83 254.592C394.95 254.992 393.966 255.192 392.878 255.192C391.566 255.192 390.398 254.912 389.374 254.352C388.35 253.792 387.55 252.992 386.974 251.952C386.398 250.912 386.11 249.696 386.11 248.304C386.11 246.912 386.39 245.696 386.95 244.656C387.526 243.616 388.326 242.816 389.35 242.256C390.374 241.696 391.55 241.416 392.878 241.416C394.174 241.416 395.326 241.688 396.334 242.232C397.342 242.776 398.126 243.552 398.686 244.56C399.262 245.568 399.549 246.744 399.549 248.088ZM395.35 247.008C395.35 246.304 395.11 245.744 394.63 245.328C394.15 244.912 393.55 244.704 392.83 244.704C392.142 244.704 391.558 244.904 391.078 245.304C390.614 245.704 390.326 246.272 390.214 247.008H395.35ZM400.899 248.28C400.899 246.904 401.155 245.696 401.667 244.656C402.195 243.616 402.907 242.816 403.803 242.256C404.699 241.696 405.699 241.416 406.803 241.416C407.683 241.416 408.483 241.6 409.203 241.968C409.939 242.336 410.515 242.832 410.931 243.456V237.24H415.035V255H410.931V253.08C410.547 253.72 409.995 254.232 409.275 254.616C408.571 255 407.747 255.192 406.803 255.192C405.699 255.192 404.699 254.912 403.803 254.352C402.907 253.776 402.195 252.968 401.667 251.928C401.155 250.872 400.899 249.656 400.899 248.28ZM410.931 248.304C410.931 247.28 410.643 246.472 410.067 245.88C409.507 245.288 408.819 244.992 408.003 244.992C407.187 244.992 406.491 245.288 405.915 245.88C405.355 246.456 405.075 247.256 405.075 248.28C405.075 249.304 405.355 250.12 405.915 250.728C406.491 251.32 407.187 251.616 408.003 251.616C408.819 251.616 409.507 251.32 410.067 250.728C410.643 250.136 410.931 249.328 410.931 248.304Z" fill="#304850"/>
<path d="M45.456 400.152V403.44H38.592V406.992H43.728V410.184H38.592V417H34.488V400.152H45.456ZM60.837 403.608V417H56.733V415.176C56.317 415.768 55.749 416.248 55.029 416.616C54.325 416.968 53.541 417.144 52.677 417.144C51.653 417.144 50.749 416.92 49.965 416.472C49.181 416.008 48.573 415.344 48.141 414.48C47.709 413.616 47.493 412.6 47.493 411.432V403.608H51.573V410.88C51.573 411.776 51.805 412.472 52.269 412.968C52.733 413.464 53.357 413.712 54.141 413.712C54.941 413.712 55.573 413.464 56.037 412.968C56.501 412.472 56.733 411.776 56.733 410.88V403.608H60.837ZM71.9449 403.464C73.5129 403.464 74.7609 403.976 75.6889 405C76.6329 406.008 77.1049 407.4 77.1049 409.176V417H73.0249V409.728C73.0249 408.832 72.7929 408.136 72.3289 407.64C71.8649 407.144 71.2409 406.896 70.4569 406.896C69.6729 406.896 69.0489 407.144 68.5849 407.64C68.1209 408.136 67.8889 408.832 67.8889 409.728V417H63.7849V403.608H67.8889V405.384C68.3049 404.792 68.8649 404.328 69.5689 403.992C70.2729 403.64 71.0649 403.464 71.9449 403.464ZM79.1408 410.28C79.1408 408.904 79.3968 407.696 79.9088 406.656C80.4368 405.616 81.1488 404.816 82.0448 404.256C82.9408 403.696 83.9408 403.416 85.0448 403.416C85.9248 403.416 86.7248 403.6 87.4448 403.968C88.1808 404.336 88.7568 404.832 89.1728 405.456V399.24H93.2768V417H89.1728V415.08C88.7888 415.72 88.2368 416.232 87.5168 416.616C86.8128 417 85.9888 417.192 85.0448 417.192C83.9408 417.192 82.9408 416.912 82.0448 416.352C81.1488 415.776 80.4368 414.968 79.9088 413.928C79.3968 412.872 79.1408 411.656 79.1408 410.28ZM89.1728 410.304C89.1728 409.28 88.8848 408.472 88.3088 407.88C87.7488 407.288 87.0608 406.992 86.2448 406.992C85.4288 406.992 84.7328 407.288 84.1568 407.88C83.5968 408.456 83.3168 409.256 83.3168 410.28C83.3168 411.304 83.5968 412.12 84.1568 412.728C84.7328 413.32 85.4288 413.616 86.2448 413.616C87.0608 413.616 87.7488 413.32 88.3088 412.728C88.8848 412.136 89.1728 411.328 89.1728 410.304ZM108.87 410.088C108.87 410.472 108.846 410.872 108.798 411.288H99.5098C99.5738 412.12 99.8378 412.76 100.302 413.208C100.782 413.64 101.366 413.856 102.054 413.856C103.078 413.856 103.79 413.424 104.19 412.56H108.558C108.334 413.44 107.926 414.232 107.334 414.936C106.758 415.64 106.03 416.192 105.15 416.592C104.27 416.992 103.286 417.192 102.198 417.192C100.886 417.192 99.7178 416.912 98.6938 416.352C97.6698 415.792 96.8698 414.992 96.2938 413.952C95.7178 412.912 95.4298 411.696 95.4298 410.304C95.4298 408.912 95.7098 407.696 96.2698 406.656C96.8458 405.616 97.6458 404.816 98.6698 404.256C99.6938 403.696 100.87 403.416 102.198 403.416C103.494 403.416 104.646 403.688 105.654 404.232C106.662 404.776 107.446 405.552 108.006 406.56C108.582 407.568 108.87 408.744 108.87 410.088ZM104.67 409.008C104.67 408.304 104.43 407.744 103.95 407.328C103.47 406.912 102.87 406.704 102.15 406.704C101.462 406.704 100.878 406.904 100.398 407.304C99.9338 407.704 99.6458 408.272 99.5338 409.008H104.67ZM110.219 410.28C110.219 408.904 110.475 407.696 110.987 406.656C111.515 405.616 112.227 404.816 113.123 404.256C114.019 403.696 115.019 403.416 116.123 403.416C117.003 403.416 117.803 403.6 118.523 403.968C119.259 404.336 119.835 404.832 120.251 405.456V399.24H124.355V417H120.251V415.08C119.867 415.72 119.315 416.232 118.595 416.616C117.891 417 117.067 417.192 116.123 417.192C115.019 417.192 114.019 416.912 113.123 416.352C112.227 415.776 111.515 414.968 110.987 413.928C110.475 412.872 110.219 411.656 110.219 410.28ZM120.251 410.304C120.251 409.28 119.963 408.472 119.387 407.88C118.827 407.288 118.139 406.992 117.323 406.992C116.507 406.992 115.811 407.288 115.235 407.88C114.675 408.456 114.395 409.256 114.395 410.28C114.395 411.304 114.675 412.12 115.235 412.728C115.811 413.32 116.507 413.616 117.323 413.616C118.139 413.616 118.827 413.32 119.387 412.728C119.963 412.136 120.251 411.328 120.251 410.304ZM43.08 444L39.576 437.64H38.592V444H34.488V427.152H41.376C42.704 427.152 43.832 427.384 44.76 427.848C45.704 428.312 46.408 428.952 46.872 429.768C47.336 430.568 47.568 431.464 47.568 432.456C47.568 433.576 47.248 434.576 46.608 435.456C45.984 436.336 45.056 436.96 43.824 437.328L47.712 444H43.08ZM38.592 434.736H41.136C41.888 434.736 42.448 434.552 42.816 434.184C43.2 433.816 43.392 433.296 43.392 432.624C43.392 431.984 43.2 431.48 42.816 431.112C42.448 430.744 41.888 430.56 41.136 430.56H38.592V434.736ZM62.7682 437.088C62.7682 437.472 62.7443 437.872 62.6963 438.288H53.4083C53.4723 439.12 53.7363 439.76 54.2003 440.208C54.6803 440.64 55.2643 440.856 55.9523 440.856C56.9763 440.856 57.6883 440.424 58.0883 439.56H62.4563C62.2323 440.44 61.8243 441.232 61.2323 441.936C60.6563 442.64 59.9283 443.192 59.0483 443.592C58.1683 443.992 57.1843 444.192 56.0963 444.192C54.7843 444.192 53.6163 443.912 52.5923 443.352C51.5683 442.792 50.7683 441.992 50.1923 440.952C49.6163 439.912 49.3283 438.696 49.3283 437.304C49.3283 435.912 49.6083 434.696 50.1683 433.656C50.7443 432.616 51.5443 431.816 52.5683 431.256C53.5923 430.696 54.7683 430.416 56.0963 430.416C57.3923 430.416 58.5443 430.688 59.5523 431.232C60.5603 431.776 61.3443 432.552 61.9043 433.56C62.4803 434.568 62.7682 435.744 62.7682 437.088ZM58.5683 436.008C58.5683 435.304 58.3283 434.744 57.8483 434.328C57.3683 433.912 56.7683 433.704 56.0483 433.704C55.3603 433.704 54.7763 433.904 54.2963 434.304C53.8323 434.704 53.5443 435.272 53.4323 436.008H58.5683ZM70.3813 444.192C69.2133 444.192 68.1733 443.992 67.2613 443.592C66.3493 443.192 65.6293 442.648 65.1013 441.96C64.5733 441.256 64.2773 440.472 64.2133 439.608H68.2693C68.3173 440.072 68.5333 440.448 68.9173 440.736C69.3013 441.024 69.7733 441.168 70.3333 441.168C70.8453 441.168 71.2373 441.072 71.5093 440.88C71.7973 440.672 71.9413 440.408 71.9413 440.088C71.9413 439.704 71.7413 439.424 71.3413 439.248C70.9413 439.056 70.2933 438.848 69.3973 438.624C68.4373 438.4 67.6373 438.168 66.9973 437.928C66.3573 437.672 65.8053 437.28 65.3413 436.752C64.8773 436.208 64.6453 435.48 64.6453 434.568C64.6453 433.8 64.8533 433.104 65.2693 432.48C65.7013 431.84 66.3253 431.336 67.1413 430.968C67.9733 430.6 68.9573 430.416 70.0933 430.416C71.7733 430.416 73.0933 430.832 74.0533 431.664C75.0293 432.496 75.5893 433.6 75.7333 434.976H71.9413C71.8773 434.512 71.6693 434.144 71.3173 433.872C70.9813 433.6 70.5333 433.464 69.9733 433.464C69.4933 433.464 69.1253 433.56 68.8693 433.752C68.6133 433.928 68.4853 434.176 68.4853 434.496C68.4853 434.88 68.6853 435.168 69.0853 435.36C69.5013 435.552 70.1413 435.744 71.0053 435.936C71.9973 436.192 72.8053 436.448 73.4293 436.704C74.0533 436.944 74.5973 437.344 75.0613 437.904C75.5413 438.448 75.7893 439.184 75.8053 440.112C75.8053 440.896 75.5813 441.6 75.1333 442.224C74.7013 442.832 74.0693 443.312 73.2373 443.664C72.4213 444.016 71.4693 444.192 70.3813 444.192ZM90.9401 437.088C90.9401 437.472 90.9161 437.872 90.8681 438.288H81.5801C81.6441 439.12 81.9081 439.76 82.3721 440.208C82.8521 440.64 83.4361 440.856 84.1241 440.856C85.1481 440.856 85.8601 440.424 86.2601 439.56H90.6281C90.4041 440.44 89.9961 441.232 89.4041 441.936C88.8281 442.64 88.1001 443.192 87.2201 443.592C86.3401 443.992 85.3561 444.192 84.2681 444.192C82.9561 444.192 81.7881 443.912 80.7641 443.352C79.7401 442.792 78.9401 441.992 78.3641 440.952C77.7881 439.912 77.5001 438.696 77.5001 437.304C77.5001 435.912 77.7801 434.696 78.3401 433.656C78.9161 432.616 79.7161 431.816 80.7401 431.256C81.7641 430.696 82.9401 430.416 84.2681 430.416C85.5641 430.416 86.7161 430.688 87.7241 431.232C88.7321 431.776 89.5161 432.552 90.0761 433.56C90.6521 434.568 90.9401 435.744 90.9401 437.088ZM86.7401 436.008C86.7401 435.304 86.5001 434.744 86.0201 434.328C85.5401 433.912 84.9401 433.704 84.2201 433.704C83.5321 433.704 82.9481 433.904 82.4681 434.304C82.0041 434.704 81.7161 435.272 81.6041 436.008H86.7401ZM92.2892 437.28C92.2892 435.904 92.5452 434.696 93.0572 433.656C93.5852 432.616 94.2972 431.816 95.1932 431.256C96.0892 430.696 97.0892 430.416 98.1932 430.416C99.1372 430.416 99.9612 430.608 100.665 430.992C101.385 431.376 101.937 431.88 102.321 432.504V430.608H106.425V444H102.321V442.104C101.921 442.728 101.361 443.232 100.641 443.616C99.9372 444 99.1132 444.192 98.1692 444.192C97.0812 444.192 96.0892 443.912 95.1932 443.352C94.2972 442.776 93.5852 441.968 93.0572 440.928C92.5452 439.872 92.2892 438.656 92.2892 437.28ZM102.321 437.304C102.321 436.28 102.033 435.472 101.457 434.88C100.897 434.288 100.209 433.992 99.3932 433.992C98.5772 433.992 97.8812 434.288 97.3052 434.88C96.7452 435.456 96.4652 436.256 96.4652 437.28C96.4652 438.304 96.7452 439.12 97.3052 439.728C97.8812 440.32 98.5772 440.616 99.3932 440.616C100.209 440.616 100.897 440.32 101.457 439.728C102.033 439.136 102.321 438.328 102.321 437.304ZM113.498 432.84C113.978 432.104 114.578 431.528 115.298 431.112C116.018 430.68 116.818 430.464 117.698 430.464V434.808H116.57C115.546 434.808 114.778 435.032 114.266 435.48C113.754 435.912 113.498 436.68 113.498 437.784V444H109.394V430.608H113.498V432.84ZM118.844 437.304C118.844 435.912 119.124 434.696 119.684 433.656C120.26 432.616 121.052 431.816 122.06 431.256C123.084 430.696 124.252 430.416 125.564 430.416C127.244 430.416 128.644 430.856 129.764 431.736C130.9 432.616 131.644 433.856 131.996 435.456H127.628C127.26 434.432 126.548 433.92 125.492 433.92C124.74 433.92 124.14 434.216 123.692 434.808C123.244 435.384 123.02 436.216 123.02 437.304C123.02 438.392 123.244 439.232 123.692 439.824C124.14 440.4 124.74 440.688 125.492 440.688C126.548 440.688 127.26 440.176 127.628 439.152H131.996C131.644 440.72 130.9 441.952 129.764 442.848C128.628 443.744 127.228 444.192 125.564 444.192C124.252 444.192 123.084 443.912 122.06 443.352C121.052 442.792 120.26 441.992 119.684 440.952C119.124 439.912 118.844 438.696 118.844 437.304ZM142.423 430.464C143.959 430.464 145.191 430.976 146.119 432C147.047 433.008 147.511 434.4 147.511 436.176V444H143.431V436.728C143.431 435.832 143.199 435.136 142.735 434.64C142.271 434.144 141.647 433.896 140.863 433.896C140.079 433.896 139.455 434.144 138.991 434.64C138.527 435.136 138.295 435.832 138.295 436.728V444H134.191V426.24H138.295V432.408C138.711 431.816 139.279 431.344 139.999 430.992C140.719 430.64 141.527 430.464 142.423 430.464ZM162.987 437.088C162.987 437.472 162.963 437.872 162.915 438.288H153.627C153.691 439.12 153.955 439.76 154.419 440.208C154.899 440.64 155.483 440.856 156.171 440.856C157.195 440.856 157.907 440.424 158.307 439.56H162.675C162.451 440.44 162.043 441.232 161.451 441.936C160.875 442.64 160.147 443.192 159.267 443.592C158.387 443.992 157.403 444.192 156.315 444.192C155.003 444.192 153.835 443.912 152.811 443.352C151.787 442.792 150.987 441.992 150.411 440.952C149.835 439.912 149.547 438.696 149.547 437.304C149.547 435.912 149.827 434.696 150.387 433.656C150.963 432.616 151.763 431.816 152.787 431.256C153.811 430.696 154.987 430.416 156.315 430.416C157.611 430.416 158.763 430.688 159.771 431.232C160.779 431.776 161.563 432.552 162.123 433.56C162.699 434.568 162.987 435.744 162.987 437.088ZM158.787 436.008C158.787 435.304 158.547 434.744 158.067 434.328C157.587 433.912 156.987 433.704 156.267 433.704C155.579 433.704 154.995 433.904 154.515 434.304C154.051 434.704 153.763 435.272 153.651 436.008H158.787ZM169.256 432.84C169.736 432.104 170.336 431.528 171.056 431.112C171.776 430.68 172.576 430.464 173.456 430.464V434.808H172.328C171.304 434.808 170.536 435.032 170.024 435.48C169.512 435.912 169.256 436.68 169.256 437.784V444H165.152V430.608H169.256V432.84ZM180.866 444.192C179.698 444.192 178.658 443.992 177.746 443.592C176.834 443.192 176.114 442.648 175.586 441.96C175.058 441.256 174.762 440.472 174.698 439.608H178.754C178.802 440.072 179.018 440.448 179.402 440.736C179.786 441.024 180.258 441.168 180.818 441.168C181.33 441.168 181.722 441.072 181.994 440.88C182.282 440.672 182.426 440.408 182.426 440.088C182.426 439.704 182.226 439.424 181.826 439.248C181.426 439.056 180.778 438.848 179.882 438.624C178.922 438.4 178.122 438.168 177.482 437.928C176.842 437.672 176.29 437.28 175.826 436.752C175.362 436.208 175.13 435.48 175.13 434.568C175.13 433.8 175.338 433.104 175.754 432.48C176.186 431.84 176.81 431.336 177.626 430.968C178.458 430.6 179.442 430.416 180.578 430.416C182.258 430.416 183.578 430.832 184.538 431.664C185.514 432.496 186.074 433.6 186.218 434.976H182.426C182.362 434.512 182.154 434.144 181.802 433.872C181.466 433.6 181.018 433.464 180.458 433.464C179.978 433.464 179.61 433.56 179.354 433.752C179.098 433.928 178.97 434.176 178.97 434.496C178.97 434.88 179.17 435.168 179.57 435.36C179.986 435.552 180.626 435.744 181.49 435.936C182.482 436.192 183.29 436.448 183.914 436.704C184.538 436.944 185.082 437.344 185.546 437.904C186.026 438.448 186.274 439.184 186.29 440.112C186.29 440.896 186.066 441.6 185.618 442.224C185.186 442.832 184.554 443.312 183.722 443.664C182.906 444.016 181.954 444.192 180.866 444.192Z" fill="#FBF9F4"/>
</svg>